<?xml version="1.0" standalone="no"?>
<!DOCTYPE svg PUBLIC "-//W3C//DTD SVG 20010904//EN"
 "http://www.w3.org/TR/2001/REC-SVG-20010904/DTD/svg10.dtd">
<svg version="1.0" xmlns="http://www.w3.org/2000/svg"
 width="4096.000000pt" height="4096.000000pt" viewBox="0 0 4096.000000 4096.000000"
 preserveAspectRatio="xMidYMid meet">
<metadata>
Created by potrace 1.16, written by Peter Selinger 2001-2019
</metadata>
<g transform="translate(0.000000,4096.000000) scale(0.100000,-0.100000)"
fill="#000000" stroke="none">
<path d="M19005 40945 c-1218 -116 -2304 -625 -3161 -1480 -822 -821 -1331
-1855 -1473 -2995 -158 -1262 167 -2533 915 -3578 l83 -117 -97 -2 c-1093 -25
-2122 -381 -2988 -1032 -373 -280 -751 -660 -1037 -1043 -473 -634 -808 -1411
-936 -2175 -71 -422 -66 -209 -66 -2923 0 -2696 -4 -2505 61 -2895 151 -898
535 -1726 1135 -2445 131 -159 447 -475 609 -612 667 -561 1354 -901 2252
-1112 l28 -6 3 -4793 c3 -5247 -2 -4833 58 -5126 95 -472 296 -908 599 -1301
117 -152 402 -429 568 -553 433 -322 881 -506 1450 -594 97 -15 318 -17 2352
-21 1605 -2 2286 0 2390 8 946 74 1801 579 2325 1375 280 424 448 910 495
1425 7 77 10 1680 10 4847 l0 4733 28 6 c456 106 810 229 1177 409 510 250
938 552 1339 945 797 780 1303 1746 1485 2835 71 424 73 505 68 3030 -3 2006
-5 2225 -20 2370 -33 301 -88 601 -157 857 -473 1738 -1836 3113 -3572 3602
-402 114 -895 186 -1266 186 l-123 0 45 63 c547 750 871 1585 973 2507 25 224
25 782 0 1010 -116 1054 -509 1979 -1190 2795 -130 156 -458 482 -616 614
-608 506 -1253 840 -2021 1045 -191 51 -463 101 -720 132 -185 22 -810 28
-1005 9z m650 -2045 c664 -47 1257 -281 1760 -695 115 -95 315 -294 407 -406
718 -871 900 -2083 466 -3109 -90 -213 -191 -391 -344 -605 -234 -330 -362
-606 -429 -925 -22 -103 -28 -161 -32 -335 -8 -286 18 -468 98 -709 121 -362
341 -681 640 -931 267 -223 599 -376 956 -440 48 -9 223 -22 388 -30 388 -18
573 -44 830 -116 380 -108 775 -312 1090 -564 132 -105 349 -323 457 -459 340
-426 565 -939 642 -1466 36 -243 37 -360 34 -2610 -4 -2032 -5 -2224 -21
-2330 -56 -373 -141 -656 -287 -955 -337 -689 -901 -1212 -1620 -1501 l-105
-42 -5 3061 c-4 2408 -8 3072 -18 3107 -95 342 -273 567 -557 705 -170 83
-244 99 -455 99 -193 0 -253 -11 -405 -75 -154 -64 -318 -195 -426 -340 -64
-87 -133 -234 -167 -356 l-27 -98 -5 -8865 -5 -8865 -22 -77 c-55 -192 -137
-333 -272 -469 -136 -135 -279 -218 -469 -272 -74 -21 -98 -22 -674 -25 l-598
-3 -2 4698 -3 4698 -23 80 c-34 120 -121 288 -196 382 -105 130 -255 241 -407
302 -279 112 -568 103 -838 -25 -271 -128 -466 -365 -554 -672 l-22 -77 -3
-4693 -2 -4693 -598 3 c-578 4 -599 4 -672 25 -188 55 -344 145 -471 272 -139
140 -217 281 -281 511 -10 36 -14 1834 -18 8910 l-5 8865 -24 85 c-134 478
-522 780 -1001 780 -480 0 -874 -309 -1003 -785 l-22 -80 -2 -3057 -3 -3056
-73 28 c-929 358 -1626 1139 -1868 2091 -43 171 -76 383 -88 564 -15 214 -15
4281 -1 4490 20 294 81 589 175 850 60 168 203 458 298 607 432 673 1088 1139
1867 1328 202 49 380 70 705 85 324 15 441 31 623 85 698 207 1231 764 1407
1470 43 172 58 302 58 495 0 337 -65 609 -218 916 -68 137 -114 211 -255 414
-192 277 -312 507 -405 775 -417 1208 -19 2572 984 3369 597 474 1364 714
2116 661z"/>
<path d="M12135 15809 c-60 -11 -240 -42 -400 -70 -3697 -639 -6856 -1764
-8898 -3166 -752 -517 -1381 -1089 -1827 -1663 -484 -623 -801 -1283 -935
-1944 -62 -308 -70 -402 -70 -781 1 -355 7 -436 56 -700 173 -933 713 -1867
1552 -2681 938 -912 2239 -1717 3912 -2422 3141 -1323 7314 -2148 11845 -2342
638 -27 862 -32 1796 -37 1165 -6 1738 5 2709 52 4213 206 8130 973 11168
2186 1490 595 2722 1280 3658 2035 456 367 893 802 1197 1193 430 551 738
1154 891 1741 211 809 158 1644 -156 2440 -389 988 -1163 1911 -2296 2737
-2000 1459 -5103 2614 -8872 3302 -272 50 -809 141 -830 141 -13 0 -15 -104
-15 -974 l0 -975 53 -10 c28 -6 144 -26 257 -46 2357 -415 4508 -1042 6152
-1794 1476 -675 2580 -1434 3236 -2224 608 -732 801 -1452 587 -2190 -190
-656 -757 -1352 -1635 -2007 -469 -350 -1064 -707 -1715 -1030 -765 -379
-1469 -666 -2400 -976 -2753 -916 -6087 -1481 -9685 -1639 -943 -41 -2482 -54
-3305 -27 -2331 76 -4291 275 -6305 638 -4337 781 -7730 2232 -9214 3939 -537
618 -786 1279 -711 1895 26 222 83 428 172 630 498 1124 1950 2239 4123 3167
1587 678 3676 1261 5865 1637 83 15 160 29 173 31 l22 5 0 975 0 975 -22 -1
c-13 -1 -72 -10 -133 -20z"/>
</g>
</svg>
