<?xml version="1.0" standalone="no"?>
<!DOCTYPE svg PUBLIC "-//W3C//DTD SVG 20010904//EN"
 "http://www.w3.org/TR/2001/REC-SVG-20010904/DTD/svg10.dtd">
<svg version="1.0" xmlns="http://www.w3.org/2000/svg"
 width="512.000000pt" height="512.000000pt" viewBox="0 0 512.000000 512.000000"
 preserveAspectRatio="xMidYMid meet">
<metadata>
Created by potrace 1.16, written by Peter Selinger 2001-2019
</metadata>
<g transform="translate(0.000000,512.000000) scale(0.100000,-0.100000)"
fill="#000000" stroke="none">
<path d="M1293 4002 l-1262 -727 -1 -1457 0 -1458 2530 0 2530 0 0 1458 -1
1457 -1256 725 c-690 399 -1261 726 -1267 727 -6 2 -579 -325 -1273 -725z
m2427 -195 l1145 -662 3 -1283 2 -1282 -575 0 -575 0 0 1385 c0 974 -3 1391
-11 1408 -23 51 -94 71 -149 42 -64 -33 -60 62 -60 -1455 l0 -1380 -940 0
-940 0 0 1383 c0 1364 0 1382 -20 1415 -38 62 -114 70 -166 18 l-34 -34 0
-1391 0 -1391 -575 0 -575 0 2 1282 3 1283 1145 661 c630 364 1152 662 1160
663 8 0 530 -298 1160 -662z"/>
<path d="M2453 3512 c-63 -23 -115 -61 -154 -115 -52 -72 -59 -116 -59 -374
l0 -233 321 0 320 0 -3 253 c-3 283 -7 302 -83 385 -79 88 -228 125 -342 84z
m173 -236 l34 -34 0 -116 0 -116 -100 0 -100 0 0 116 0 116 34 34 c25 25 43
34 66 34 23 0 42 -9 66 -34z"/>
<path d="M660 1630 l0 -320 110 0 110 0 0 320 0 320 -110 0 -110 0 0 -320z"/>
<path d="M2460 1630 l0 -320 110 0 110 0 0 320 0 320 -110 0 -110 0 0 -320z"/>
<path d="M4240 1630 l0 -320 110 0 110 0 0 320 0 320 -110 0 -110 0 0 -320z"/>
</g>
</svg>
