<?xml version="1.0" standalone="no"?>
<!DOCTYPE svg PUBLIC "-//W3C//DTD SVG 20010904//EN"
 "http://www.w3.org/TR/2001/REC-SVG-20010904/DTD/svg10.dtd">
<svg version="1.0" xmlns="http://www.w3.org/2000/svg"
 width="512.000000pt" height="512.000000pt" viewBox="0 0 512.000000 512.000000"
 preserveAspectRatio="xMidYMid meet">

<g transform="translate(0.000000,512.000000) scale(0.100000,-0.100000)"
fill="#000000" stroke="none">
<path d="M2511 5106 c-42 -23 -50 -53 -51 -178 l0 -118 -75 0 c-68 0 -77 -2
-107 -29 -27 -24 -33 -36 -33 -71 0 -35 6 -47 33 -71 30 -27 39 -29 107 -29
l75 0 0 -178 0 -177 -546 -545 c-300 -300 -552 -557 -560 -572 -9 -18 -14 -60
-14 -131 0 -72 -4 -108 -12 -114 -7 -6 -303 -167 -656 -359 -665 -360 -672
-365 -672 -424 0 -57 60 -108 115 -98 l25 5 0 -908 0 -909 -30 0 c-109 0 -152
-138 -59 -186 42 -21 4976 -21 5018 0 93 48 50 186 -59 186 l-30 0 0 909 0
908 25 -5 c56 -10 116 41 115 100 -1 57 -14 65 -682 428 l-653 355 -5 115 c-3
63 -10 124 -17 135 -6 11 -257 265 -557 565 l-546 545 0 177 0 178 70 0 c81 0
116 13 136 51 27 52 8 115 -41 137 -14 7 -57 12 -95 12 l-70 0 0 115 c0 67 -5
125 -12 140 -22 48 -88 68 -137 41z m561 -1553 l508 -508 0 -1422 0 -1423
-179 0 -180 0 -3 478 -3 477 -31 86 c-72 201 -216 345 -416 417 -65 23 -88 26
-208 26 -120 0 -143 -3 -208 -26 -200 -72 -353 -225 -419 -421 l-28 -82 -3
-477 -3 -478 -180 0 -179 0 0 680 0 680 -29 32 c-41 47 -101 47 -142 0 l-29
-32 0 -680 0 -680 -500 0 -500 0 0 963 0 964 348 188 c191 104 415 226 497
271 l150 82 5 -145 c5 -144 5 -145 33 -169 38 -33 96 -33 134 0 l28 24 3 334
3 333 507 508 c279 279 509 507 512 507 3 0 233 -228 512 -507z m1251 -1178
l457 -248 0 -964 0 -963 -500 0 -500 0 0 1236 0 1236 43 -24 c24 -14 249 -136
500 -273z m-1863 -1535 l0 -640 -180 0 -181 0 3 468 c3 462 3 468 26 524 31
76 98 165 158 207 41 30 145 80 167 81 4 0 7 -288 7 -640z m308 598 c74 -35
155 -113 194 -185 55 -101 58 -128 58 -610 l0 -443 -180 0 -180 0 0 641 0 640
23 -6 c12 -4 50 -20 85 -37z"/>
<path d="M2405 3087 c-148 -55 -250 -169 -290 -324 -37 -142 2 -299 104 -414
176 -200 506 -200 682 0 219 248 118 633 -196 741 -83 28 -219 27 -300 -3z
m274 -204 c80 -39 139 -130 140 -216 2 -102 -54 -198 -140 -241 -172 -85 -375
35 -378 225 -3 193 203 320 378 232z"/>
<path d="M1404 2071 c-12 -5 -31 -22 -44 -38 -17 -22 -21 -36 -17 -68 16 -115
178 -115 194 1 4 35 1 46 -23 73 -31 33 -76 46 -110 32z"/>
<path d="M775 1611 c-91 -23 -165 -83 -206 -167 -24 -48 -24 -53 -27 -383 -3
-352 -1 -377 42 -406 30 -22 482 -22 512 0 43 29 45 54 42 406 -3 330 -3 335
-27 383 -31 63 -84 116 -144 144 -52 24 -145 36 -192 23z m138 -231 l27 -30 0
-255 0 -255 -100 0 -100 0 0 254 c0 244 1 254 21 280 43 54 105 57 152 6z"/>
<path d="M4215 1611 c-91 -23 -165 -83 -206 -167 -24 -48 -24 -53 -27 -383 -3
-352 -1 -377 42 -406 30 -22 482 -22 512 0 43 29 45 54 42 406 -3 330 -3 335
-27 383 -31 63 -84 116 -144 144 -52 24 -145 36 -192 23z m138 -231 l27 -30 0
-255 0 -255 -100 0 -100 0 0 254 c0 244 1 254 21 280 43 54 105 57 152 6z"/>
</g>
</svg>
