<?xml version="1.0" standalone="no"?>
<!DOCTYPE svg PUBLIC "-//W3C//DTD SVG 20010904//EN"
 "http://www.w3.org/TR/2001/REC-SVG-20010904/DTD/svg10.dtd">
<svg version="1.0" xmlns="http://www.w3.org/2000/svg"
 width="512.000000pt" height="512.000000pt" viewBox="0 0 512.000000 512.000000"
 preserveAspectRatio="xMidYMid meet">
<metadata>
Created by potrace 1.16, written by Peter Selinger 2001-2019
</metadata>
<g transform="translate(0.000000,512.000000) scale(0.100000,-0.100000)"
fill="#000000" stroke="none">
<path d="M1704 5091 c-67 -41 -64 -20 -64 -503 l0 -438 -317 0 c-350 0 -362
-2 -407 -63 -20 -26 -21 -44 -24 -245 -2 -203 -1 -219 18 -250 25 -41 76 -72
118 -72 l32 0 0 -100 0 -99 -482 -3 c-440 -3 -486 -5 -515 -21 -68 -36 -63 88
-63 -1661 l0 -1585 26 -20 27 -21 2507 0 2507 0 27 21 26 20 0 1585 c0 1749 5
1625 -63 1661 -29 16 -75 18 -514 21 l-483 3 0 99 0 100 33 0 c41 0 92 31 117
72 19 31 20 47 18 250 -4 323 16 308 -425 308 l-312 0 -3 433 c-3 480 -1 465
-71 507 -31 19 -57 20 -857 20 -795 0 -826 -1 -856 -19z m1626 -776 l0 -635
-289 0 c-324 0 -326 0 -337 -72 -5 -30 -2 -41 19 -62 l26 -26 576 0 575 0 0
-1675 0 -1675 -235 0 -235 0 0 587 c0 572 -1 588 -21 629 -15 31 -32 48 -63
63 -42 21 -56 21 -786 21 -730 0 -744 0 -786 -21 -31 -15 -48 -32 -63 -63 -20
-41 -21 -57 -21 -629 l0 -587 -235 0 -235 0 -2 596 -3 596 -24 19 c-31 25 -79
24 -108 -3 l-23 -21 0 -594 0 -593 -455 0 -455 0 0 1275 0 1275 455 0 455 0 0
-540 c0 -527 0 -540 20 -560 31 -31 93 -27 119 6 21 27 21 31 21 960 l0 934
620 0 621 0 26 26 c21 21 24 32 19 62 -11 73 -8 72 -382 72 l-334 0 0 635 0
635 770 0 770 0 0 -635z m-1700 -480 l0 -155 -290 0 -290 0 0 155 0 155 290 0
290 0 0 -155z m2440 0 l0 -155 -295 0 -295 0 0 155 0 155 295 0 295 0 0 -155z
m-3010 -815 l0 -140 -455 0 -455 0 0 140 0 140 455 0 455 0 0 -140z m3910 0
l0 -140 -455 0 -455 0 0 140 0 140 455 0 455 0 0 -140z m0 -1575 l0 -1275
-455 0 -455 0 0 1275 0 1275 455 0 455 0 0 -1275z m-2490 -705 l0 -570 -315 0
-315 0 0 570 0 570 315 0 315 0 0 -570z m790 0 l0 -570 -315 0 -315 0 0 570 0
570 315 0 315 0 0 -570z"/>
<path d="M2455 4803 c-88 -21 -135 -84 -135 -180 l0 -60 -69 -5 c-83 -6 -127
-30 -159 -86 -19 -35 -22 -54 -22 -158 0 -104 3 -124 23 -159 30 -54 92 -85
168 -85 l57 0 3 -73 c7 -134 64 -177 239 -177 175 0 232 43 239 177 l3 73 57
0 c76 0 138 31 168 85 20 35 23 55 23 159 0 104 -3 123 -22 158 -32 56 -76 80
-159 86 l-69 5 0 61 c0 94 -44 154 -127 175 -41 11 -180 13 -218 4z m185 -253
c3 -52 11 -105 18 -117 15 -28 34 -32 142 -35 l85 -3 3 -82 3 -83 -90 0 c-50
0 -101 -5 -115 -11 -34 -16 -46 -56 -46 -155 l0 -84 -79 0 -79 0 -4 101 c-3
96 -4 102 -31 125 -25 22 -37 24 -123 24 l-95 0 3 83 3 82 85 3 c47 1 95 4
108 7 34 8 52 61 52 153 0 43 3 82 7 86 4 4 39 5 78 4 l70 -3 5 -95z"/>
<path d="M1609 3171 l-29 -29 0 -207 0 -207 29 -29 29 -29 219 0 c299 0 293
-5 293 265 0 270 6 265 -293 265 l-219 0 -29 -29z m381 -236 l0 -105 -125 0
-125 0 0 105 0 105 125 0 125 0 0 -105z"/>
<path d="M2317 3180 c-38 -30 -47 -77 -47 -245 0 -168 9 -215 47 -245 24 -19
39 -20 243 -20 204 0 219 1 243 20 38 30 47 77 47 245 0 168 -9 215 -47 245
-24 19 -39 20 -243 20 -204 0 -219 -1 -243 -20z m373 -245 l0 -105 -130 0
-130 0 0 105 0 105 130 0 130 0 0 -105z"/>
<path d="M3021 3184 c-43 -30 -51 -71 -51 -249 0 -270 -6 -265 293 -265 l219
0 29 29 29 29 0 207 0 207 -29 29 -29 29 -219 0 c-186 0 -222 -2 -242 -16z
m359 -249 l0 -105 -125 0 -125 0 0 105 0 105 125 0 125 0 0 -105z"/>
<path d="M1644 2506 c-61 -27 -64 -39 -64 -261 1 -277 -12 -265 282 -265 225
0 242 4 271 60 16 31 17 58 15 220 -3 203 -7 218 -64 245 -44 21 -393 21 -440
1z m346 -256 l0 -110 -125 0 -125 0 0 110 0 110 125 0 125 0 0 -110z"/>
<path d="M2341 2507 c-13 -6 -34 -25 -45 -40 -19 -26 -21 -44 -24 -196 -4
-198 4 -243 51 -271 29 -18 51 -20 237 -20 186 0 208 2 237 20 18 11 36 32 40
47 5 15 8 110 8 210 0 169 -1 184 -21 210 -37 49 -54 53 -264 53 -135 0 -202
-4 -219 -13z m349 -257 l0 -110 -130 0 -130 0 0 110 0 110 130 0 130 0 0 -110z"/>
<path d="M3035 2505 c-56 -28 -60 -43 -63 -245 -2 -162 -1 -189 15 -220 29
-56 46 -60 271 -60 294 0 281 -12 282 265 0 223 -3 235 -66 261 -49 21 -397
19 -439 -1z m345 -255 l0 -110 -125 0 -125 0 0 110 0 110 125 0 125 0 0 -110z"/>
<path d="M331 2354 c-26 -33 -27 -75 -2 -105 l19 -24 257 0 257 0 19 24 c26
32 25 82 -4 109 -23 21 -30 22 -274 22 l-252 0 -20 -26z"/>
<path d="M335 1865 c-16 -15 -25 -36 -25 -55 0 -19 9 -40 25 -55 l24 -25 249
0 c247 0 249 0 270 23 30 32 29 81 -3 112 l-24 25 -246 0 -246 0 -24 -25z"/>
<path d="M361 1389 c-52 -21 -66 -77 -30 -123 l20 -26 255 0 c241 0 255 1 274
20 21 21 26 69 10 100 -5 10 -24 23 -41 29 -40 14 -454 14 -488 0z"/>
<path d="M331 874 c-26 -33 -27 -75 -2 -105 l19 -24 257 0 257 0 19 24 c26 32
25 82 -4 109 -23 21 -30 22 -274 22 l-252 0 -20 -26z"/>
<path d="M4242 2357 c-27 -29 -28 -77 -3 -108 l19 -24 257 0 257 0 19 24 c25
30 24 72 -2 105 l-20 26 -253 0 c-251 0 -253 0 -274 -23z"/>
<path d="M4245 1865 c-33 -32 -34 -83 -2 -113 23 -21 30 -22 271 -22 l247 0
24 25 c16 15 25 36 25 55 0 19 -9 40 -25 55 l-24 25 -246 0 -246 0 -24 -25z"/>
<path d="M4264 1386 c-48 -21 -61 -89 -24 -126 19 -19 33 -20 274 -20 l255 0
20 26 c36 45 20 105 -32 124 -46 16 -454 13 -493 -4z"/>
<path d="M4242 877 c-27 -29 -28 -77 -3 -108 l19 -24 257 0 257 0 19 24 c25
30 24 72 -2 105 l-20 26 -253 0 c-251 0 -253 0 -274 -23z"/>
<path d="M2176 849 c-26 -20 -26 -21 -26 -158 0 -131 1 -139 23 -159 29 -27
77 -28 108 -3 22 18 24 27 27 136 2 64 1 128 -2 141 -16 61 -80 82 -130 43z"/>
<path d="M2839 851 c-23 -19 -24 -24 -24 -161 0 -137 1 -142 24 -161 32 -26
82 -25 109 4 20 22 22 33 22 158 0 129 -1 137 -23 157 -29 27 -77 28 -108 3z"/>
</g>
</svg>
