<?xml version="1.0" standalone="no"?>
<!DOCTYPE svg PUBLIC "-//W3C//DTD SVG 20010904//EN"
 "http://www.w3.org/TR/2001/REC-SVG-20010904/DTD/svg10.dtd">
<svg version="1.0" xmlns="http://www.w3.org/2000/svg"
 width="512.000000pt" height="512.000000pt" viewBox="0 0 512.000000 512.000000"
 preserveAspectRatio="xMidYMid meet">

<g transform="translate(0.000000,512.000000) scale(0.100000,-0.100000)"
fill="#000000" stroke="none">
<path d="M4555 4651 c-25 -29 -24 -77 4 -104 20 -20 34 -22 171 -27 166 -6
185 -13 221 -80 38 -70 9 -164 -61 -201 -32 -18 -66 -19 -511 -19 l-476 0 -6
36 c-8 49 -33 74 -74 74 -44 0 -73 -30 -73 -75 l0 -35 -1190 0 -1190 0 0 35
c0 45 -29 75 -73 75 -41 0 -66 -25 -74 -74 l-6 -36 -198 0 c-211 0 -239 -5
-258 -47 -16 -34 -14 -47 10 -77 l20 -26 215 0 214 0 0 -538 0 -539 -102 -31
c-148 -45 -307 -72 -466 -81 -108 -5 -145 -11 -166 -25 -58 -38 -57 -5 -54
-987 l3 -901 36 -32 c35 -32 37 -33 160 -40 274 -15 479 -65 773 -191 464
-197 786 -263 1234 -252 379 9 706 85 1082 252 271 121 450 166 735 187 159
12 160 12 195 44 l35 32 3 338 c3 360 1 382 -44 403 -37 16 -52 14 -79 -14
-24 -23 -25 -31 -25 -134 l0 -110 -304 -3 c-282 -3 -305 -4 -325 -22 -26 -24
-28 -76 -3 -105 17 -21 25 -21 322 -24 l305 -2 3 -122 3 -121 -68 -6 c-340
-29 -498 -69 -812 -202 -269 -115 -450 -171 -698 -215 -167 -30 -507 -37 -693
-15 -237 29 -491 97 -718 192 -261 110 -335 137 -457 169 -133 35 -311 65
-382 65 -22 0 -61 3 -87 6 l-47 7 3 121 3 121 305 2 c297 3 305 3 323 24 24
29 22 81 -4 105 -20 18 -43 19 -325 22 l-304 3 0 179 0 179 406 3 406 3 19 24
c25 30 24 62 -2 95 l-20 26 -405 0 -404 0 0 185 0 185 155 0 c152 0 156 1 180
25 32 31 32 69 0 100 -24 24 -28 25 -180 25 l-155 0 0 125 0 125 59 0 c136 0
408 48 571 102 36 11 154 58 262 104 306 129 510 187 787 223 115 16 137 22
153 41 25 31 23 66 -7 95 -30 31 -48 31 -229 5 -227 -34 -479 -106 -703 -201
-51 -21 -95 -39 -98 -39 -3 0 -4 226 -3 503 l3 502 1185 0 1185 0 3 -502 c1
-277 1 -503 -1 -503 -2 0 -44 17 -93 39 -189 82 -426 152 -644 190 -139 25
-323 43 -347 34 -35 -12 -53 -36 -53 -70 0 -51 27 -70 107 -77 347 -32 601
-97 940 -242 310 -133 509 -184 778 -201 l105 -6 0 -124 0 -123 -155 0 c-152
0 -156 -1 -180 -25 -14 -13 -25 -36 -25 -50 0 -14 11 -37 25 -50 24 -24 28
-25 180 -25 l155 0 0 -195 c0 -182 1 -196 20 -215 33 -33 75 -30 108 6 l22 25
0 412 c0 372 -2 415 -18 447 -25 51 -70 70 -167 70 -145 1 -311 28 -497 82
l-108 31 0 538 0 539 493 0 494 0 61 30 c112 56 167 145 167 270 0 120 -59
218 -162 270 -44 23 -61 25 -213 28 -157 3 -167 2 -185 -17z"/>
<path d="M45 4209 c-49 -28 -58 -70 -24 -113 l20 -26 245 0 c231 0 245 1 264
20 27 27 26 81 -1 106 -19 17 -41 19 -253 21 -156 2 -237 -1 -251 -8z"/>
<path d="M2459 2812 c-58 -30 -120 -102 -136 -156 -7 -24 -18 -34 -50 -46
-119 -44 -193 -146 -193 -264 0 -39 8 -77 20 -105 13 -27 20 -65 20 -102 0
-54 -2 -59 -22 -59 -64 -1 -162 -71 -201 -145 -21 -37 -22 -54 -22 -250 0
-196 1 -213 22 -251 41 -78 130 -143 194 -144 26 0 26 0 31 -97 7 -140 40
-198 138 -242 43 -20 64 -21 415 -21 231 0 384 4 408 11 49 13 115 73 138 124
17 37 19 79 19 583 0 475 2 549 16 593 30 91 2 201 -68 266 -13 12 -44 31 -70
42 -31 14 -48 29 -52 45 -16 63 -131 136 -216 136 -28 0 -43 7 -66 31 -76 82
-222 105 -325 51z m205 -143 c14 -11 33 -34 41 -50 24 -46 65 -62 120 -47 40
11 47 10 72 -8 16 -12 34 -38 41 -60 18 -52 38 -72 81 -80 20 -4 44 -11 53
-16 22 -11 48 -59 48 -88 0 -19 -5 -20 -147 -20 -82 0 -165 -5 -185 -10 -64
-18 -68 -32 -68 -236 0 -161 -2 -184 -18 -204 -22 -27 -65 -29 -92 -5 -19 17
-20 32 -20 201 l0 184 -29 32 -29 33 -149 1 -148 1 -3 47 c-3 43 0 50 36 87
33 33 46 39 80 39 76 0 112 33 112 101 0 39 24 81 59 102 38 24 112 22 145 -4z
m-224 -671 c0 -176 10 -209 77 -269 89 -80 223 -68 301 27 42 50 52 101 52
258 l0 136 110 0 110 0 0 -385 0 -385 -410 0 -410 0 0 378 c0 208 3 382 7 385
3 4 42 7 85 7 l78 0 0 -152z m-320 -313 c0 -272 0 -272 -62 -216 l-33 29 0
187 0 187 33 29 c62 56 62 56 62 -216z m970 -509 c0 -47 -4 -57 -26 -75 -26
-20 -38 -21 -384 -21 -417 0 -400 -4 -408 93 l-4 57 411 0 411 0 0 -54z"/>
</g>
</svg>
