<?xml version="1.0" standalone="no"?>
<!DOCTYPE svg PUBLIC "-//W3C//DTD SVG 20010904//EN"
 "http://www.w3.org/TR/2001/REC-SVG-20010904/DTD/svg10.dtd">
<svg version="1.0" xmlns="http://www.w3.org/2000/svg"
 width="512.000000pt" height="512.000000pt" viewBox="0 0 512.000000 512.000000"
 preserveAspectRatio="xMidYMid meet">

<g transform="translate(0.000000,512.000000) scale(0.100000,-0.100000)"
fill="#000000" stroke="none">
<path d="M1140 5102 c-19 -9 -45 -32 -57 -51 l-23 -34 0 -1012 0 -1012 23 -21
c29 -28 67 -28 95 -2 l22 21 0 989 0 990 1360 0 1360 0 0 -993 c0 -983 0 -994
20 -1012 29 -26 79 -24 102 4 17 22 18 67 18 1036 l0 1012 -23 34 c-12 19 -38
42 -57 51 -33 17 -121 18 -1420 18 -1299 0 -1387 -1 -1420 -18z"/>
<path d="M1480 4788 c-18 -13 -43 -36 -54 -51 l-21 -28 -3 -2120 -2 -2119
-100 0 -100 0 0 1115 c0 1102 0 1115 -20 1135 -27 27 -71 26 -98 -3 l-22 -23
0 -1112 0 -1112 -116 0 c-129 0 -171 -12 -195 -57 -20 -37 -20 -319 0 -356 32
-61 -85 -57 1811 -57 1896 0 1779 -4 1811 57 20 37 20 319 0 356 -24 45 -66
57 -195 57 l-116 0 0 1113 0 1114 -23 21 c-29 28 -67 28 -95 2 l-22 -21 0
-1114 0 -1115 -100 0 -100 0 -2 2119 -3 2120 -21 28 c-11 15 -36 38 -54 51
l-33 22 -1047 0 -1047 0 -33 -22z m2088 -2220 l2 -2098 -1010 0 -1010 0 0
2093 c0 1152 3 2097 7 2100 3 4 457 6 1007 5 l1001 -3 3 -2097z m672 -2333 l0
-85 -1680 0 -1680 0 0 85 0 85 1680 0 1680 0 0 -85z"/>
<path d="M1745 4500 c-66 -44 -65 -30 -65 -595 0 -475 1 -513 18 -544 37 -69
50 -71 395 -71 340 0 350 2 387 63 19 31 20 54 20 558 0 519 0 527 -21 553
-43 55 -52 56 -391 56 -295 0 -315 -1 -343 -20z m615 -595 l0 -465 -265 0
-265 0 0 465 0 465 265 0 265 0 0 -465z"/>
<path d="M2683 4500 c-64 -39 -63 -25 -63 -597 0 -496 1 -519 20 -550 37 -61
47 -63 387 -63 345 0 358 2 395 71 17 31 18 69 18 542 0 564 1 556 -65 597
-31 19 -49 20 -346 20 -294 0 -316 -1 -346 -20z m607 -595 l0 -465 -265 0
-265 0 0 465 0 465 265 0 265 0 0 -465z"/>
<path d="M1742 3140 c-62 -38 -62 -37 -62 -592 0 -555 -1 -545 63 -592 27 -20
43 -21 338 -24 344 -3 362 0 400 62 18 29 19 60 19 554 0 467 -2 527 -16 552
-35 59 -42 60 -391 60 -301 0 -320 -1 -351 -20z m616 -592 l2 -468 -265 0
-265 0 0 470 0 470 263 -2 262 -3 3 -467z"/>
<path d="M2679 3143 c-61 -37 -59 -22 -59 -595 0 -494 1 -525 19 -554 38 -62
56 -65 400 -62 295 3 311 4 338 24 64 47 63 37 63 592 0 555 0 554 -62 592
-31 19 -49 20 -353 20 -278 -1 -323 -3 -346 -17z m611 -593 l0 -470 -265 0
-265 0 0 463 c0 255 3 467 7 470 3 4 123 7 265 7 l258 0 0 -470z"/>
<path d="M1735 1778 c-55 -43 -55 -45 -55 -590 0 -555 -1 -545 63 -592 27 -20
41 -21 346 -21 349 0 354 1 391 61 19 30 20 52 20 554 0 465 -2 525 -16 550
-36 59 -41 60 -397 60 -318 0 -325 0 -352 -22z m625 -588 l0 -470 -265 0 -265
0 0 470 0 470 265 0 265 0 0 -470z"/>
<path d="M2679 1783 c-61 -37 -59 -22 -59 -593 0 -502 1 -524 20 -554 37 -60
42 -61 391 -61 305 0 319 1 346 21 64 47 63 37 63 592 0 545 0 547 -55 590
-27 22 -34 22 -354 22 -284 0 -329 -3 -352 -17z m611 -593 l0 -470 -265 0
-265 0 0 470 0 470 265 0 265 0 0 -470z"/>
</g>
</svg>
