<?xml version="1.0" standalone="no"?>
<!DOCTYPE svg PUBLIC "-//W3C//DTD SVG 20010904//EN"
 "http://www.w3.org/TR/2001/REC-SVG-20010904/DTD/svg10.dtd">
<svg version="1.0" xmlns="http://www.w3.org/2000/svg"
 width="512.000000pt" height="512.000000pt" viewBox="0 0 512.000000 512.000000"
 preserveAspectRatio="xMidYMid meet">

<g transform="translate(0.000000,512.000000) scale(0.100000,-0.100000)"
fill="#000000" stroke="none">
<path d="M990 4960 c-20 -20 -20 -33 -20 -2400 0 -2367 0 -2380 20 -2400 20
-20 33 -20 1570 -20 1537 0 1550 0 1570 20 20 20 20 33 20 850 0 817 0 830
-20 850 -29 29 -74 26 -99 -6 -21 -26 -21 -33 -21 -800 l0 -774 -1450 0 -1450
0 0 2280 0 2280 1450 0 1450 0 0 -582 c0 -321 3 -593 6 -606 8 -27 56 -54 81
-45 10 3 26 13 36 21 16 14 17 58 17 664 0 635 0 648 -20 668 -20 20 -33 20
-1570 20 -1537 0 -1550 0 -1570 -20z"/>
<path d="M1455 4475 l-25 -24 0 -724 c0 -718 0 -725 21 -751 l20 -26 428 0
c370 0 430 2 449 16 l22 15 0 739 0 739 -26 20 c-26 20 -37 21 -446 21 l-419
0 -24 -25z m775 -750 l0 -635 -330 0 -330 0 0 635 0 635 330 0 330 0 0 -635z"/>
<path d="M2776 4479 l-26 -20 0 -739 0 -739 22 -15 c19 -14 79 -16 449 -16
l428 0 20 26 c21 26 21 33 21 751 l0 724 -25 24 -24 25 -419 0 c-409 0 -420
-1 -446 -21z m774 -754 l0 -635 -330 0 -330 0 0 635 0 635 330 0 330 0 0 -635z"/>
<path d="M4039 3241 c-23 -18 -24 -27 -27 -143 -3 -114 -2 -125 18 -151 26
-33 71 -36 100 -7 18 18 20 33 20 149 0 128 0 130 -26 150 -33 26 -55 26 -85
2z"/>
<path d="M3477 2726 c-208 -75 -222 -363 -22 -461 56 -27 157 -26 210 2 90 48
139 127 140 223 0 53 -6 75 -29 118 -61 109 -185 158 -299 118z m127 -136 c31
-11 66 -65 66 -100 0 -37 -33 -85 -69 -99 -72 -31 -151 22 -151 101 0 32 7 47
34 74 36 36 71 43 120 24z"/>
<path d="M4031 2544 c-19 -24 -21 -40 -21 -146 0 -113 1 -120 25 -143 29 -30
68 -32 95 -5 18 18 20 33 20 150 0 117 -2 132 -20 150 -29 29 -74 26 -99 -6z"/>
<path d="M1472 2070 c-12 -5 -27 -21 -32 -35 -6 -16 -10 -280 -10 -696 l0
-670 25 -24 24 -25 1081 0 1081 0 24 25 25 24 0 668 c0 367 -3 678 -6 691 -15
54 24 52 -1126 51 -613 0 -1073 -4 -1086 -9z m2078 -720 l0 -590 -990 0 -990
0 0 590 0 590 990 0 990 0 0 -590z"/>
</g>
</svg>
