<?xml version="1.0" standalone="no"?>
<!DOCTYPE svg PUBLIC "-//W3C//DTD SVG 20010904//EN"
 "http://www.w3.org/TR/2001/REC-SVG-20010904/DTD/svg10.dtd">
<svg version="1.0" xmlns="http://www.w3.org/2000/svg"
 width="512.000000pt" height="512.000000pt" viewBox="0 0 512.000000 512.000000"
 preserveAspectRatio="xMidYMid meet">

<g transform="translate(0.000000,512.000000) scale(0.100000,-0.100000)"
fill="#000000" stroke="none">
<path d="M1306 5017 c-17 -18 -24 -39 -29 -92 -13 -143 -100 -265 -235 -328
-66 -31 -70 -32 -253 -37 -205 -6 -210 -7 -230 -68 -17 -52 -75 -167 -117
-232 -20 -30 -110 -130 -199 -221 -145 -148 -163 -170 -163 -200 0 -30 21 -54
223 -256 199 -200 226 -223 255 -223 49 0 82 37 82 94 0 60 24 179 50 248 28
75 105 191 168 252 l50 48 52 -11 c124 -27 227 -110 282 -226 25 -55 31 -82
39 -192 17 -239 74 -386 233 -596 111 -148 173 -268 213 -412 27 -100 27 -100
28 -450 l0 -350 -28 -56 c-32 -66 -100 -132 -164 -161 -26 -11 -85 -23 -141
-29 -76 -7 -111 -16 -159 -39 -117 -58 -205 -178 -219 -300 l-6 -58 -217 -4
c-201 -4 -222 -6 -297 -31 -88 -29 -178 -83 -249 -148 -91 -84 -175 -242 -191
-357 -6 -46 -4 -53 19 -76 15 -14 35 -26 47 -26 11 0 123 29 248 65 125 36
230 65 234 65 5 0 8 -36 8 -80 0 -73 3 -83 25 -105 13 -14 36 -25 51 -25 15 0
93 38 183 89 167 96 278 145 406 179 103 28 262 52 341 52 45 0 67 5 82 18 11
9 73 84 138 166 l118 148 98 -195 c55 -110 106 -201 117 -207 11 -5 32 -10 47
-10 117 0 234 -119 234 -238 0 -16 8 -39 18 -50 30 -34 438 -272 466 -272 15
0 38 11 51 25 l25 24 0 298 c0 236 3 311 15 358 18 67 53 134 96 185 l29 35
37 -45 c129 -157 285 -239 455 -240 71 0 162 -28 219 -67 24 -17 106 -81 183
-142 l138 -111 83 0 c225 0 403 -77 559 -241 85 -89 116 -100 161 -54 23 22
25 32 25 109 0 275 -133 515 -361 649 -69 41 -202 87 -250 87 -19 0 -32 6 -35
18 -3 9 -21 49 -40 88 -62 130 -183 211 -331 221 -78 5 -78 6 -131 57 -99 96
-170 230 -198 374 -21 112 -19 331 6 426 44 172 130 285 304 400 166 109 259
211 326 359 44 98 60 172 67 307 l5 125 137 138 c118 120 146 143 209 172 53
25 92 53 141 102 105 106 151 220 151 379 0 66 -3 78 -25 99 -14 15 -35 25
-52 24 -16 0 -245 -109 -528 -252 l-500 -252 -105 -313 -105 -312 -128 128
-127 128 185 223 c102 123 185 231 185 240 0 9 -16 98 -37 199 l-36 183 156
158 c132 132 157 162 157 187 -1 19 -45 103 -133 249 -185 306 -183 306 -349
57 -176 -264 -219 -373 -237 -597 -13 -165 -51 -240 -159 -314 -125 -85 -209
-205 -233 -336 -10 -54 -18 -67 -73 -123 l-61 -62 -17 47 c-11 32 -17 82 -17
149 -2 287 71 627 194 899 25 55 45 110 45 123 0 12 -11 34 -25 47 -19 20 -34
25 -72 25 -219 -1 -449 -147 -551 -350 -62 -124 -72 -185 -72 -452 0 -186 -3
-228 -14 -228 -32 0 -156 73 -196 116 -69 75 -99 153 -110 285 -15 183 -54
297 -142 414 -51 67 -418 490 -450 518 -28 24 -74 22 -102 -6z m2525 -329 l68
-113 -150 -151 c-82 -83 -149 -157 -149 -165 -1 -8 16 -100 37 -205 l37 -191
-197 -237 c-166 -199 -197 -242 -197 -269 0 -28 25 -57 223 -254 191 -192 227
-223 253 -223 61 0 65 8 191 386 l118 356 397 199 c219 110 400 199 403 199
25 0 -35 -120 -84 -169 -40 -40 -113 -83 -161 -94 -14 -4 -101 -82 -202 -185
l-178 -178 0 -120 c0 -148 -18 -236 -69 -339 -55 -110 -121 -181 -254 -269
-62 -41 -128 -90 -149 -108 -97 -89 -180 -225 -220 -365 -21 -70 -23 -100 -23
-283 0 -169 3 -217 19 -274 52 -193 150 -352 289 -467 57 -48 59 -49 129 -49
101 0 144 -16 203 -75 52 -51 75 -102 75 -164 0 -54 33 -77 122 -84 195 -17
372 -134 452 -300 19 -40 38 -83 42 -97 6 -23 6 -24 -17 -8 -167 109 -296 154
-474 165 l-100 6 -143 114 c-202 160 -263 188 -440 203 -170 15 -243 58 -359
210 -40 52 -83 99 -96 104 -43 16 -77 -3 -161 -87 -61 -61 -91 -101 -119 -158
-57 -115 -67 -180 -67 -431 l0 -217 -117 70 c-125 76 -133 82 -133 115 0 39
-69 161 -114 202 -50 46 -128 89 -183 100 -38 7 -38 8 -158 242 -167 326 -154
325 -375 47 l-155 -195 -85 -7 c-213 -17 -422 -79 -627 -186 l-133 -69 0 66
c0 56 -4 68 -25 89 -13 14 -34 25 -45 25 -12 0 -116 -27 -232 -60 -116 -34
-212 -59 -214 -57 -8 7 66 105 113 149 116 107 197 128 516 128 l238 0 24 25
c23 22 25 32 25 107 0 91 25 162 71 205 39 35 110 63 164 63 169 1 350 111
424 258 57 112 61 147 61 472 0 322 -10 426 -55 567 -51 162 -101 255 -229
423 -85 112 -146 228 -171 325 -9 33 -20 117 -25 186 -14 188 -57 294 -166
403 -95 95 -216 151 -348 163 l-72 6 -60 -50 c-69 -58 -125 -123 -179 -206
-43 -68 -58 -102 -94 -209 l-26 -78 -109 109 -110 110 121 125 c126 130 218
256 268 367 l30 67 150 4 c161 5 226 21 328 81 75 44 162 140 203 222 l36 74
160 -182 c88 -100 171 -202 185 -226 49 -81 73 -166 83 -291 15 -180 58 -285
162 -390 98 -99 218 -155 353 -167 69 -5 74 -4 99 20 l26 26 0 283 c0 307 5
350 56 450 40 78 125 162 207 203 39 19 72 33 74 31 3 -2 -12 -48 -32 -101
-84 -225 -133 -485 -142 -756 l-6 -166 47 -141 c49 -147 66 -172 114 -172 38
0 52 12 190 159 115 122 132 145 132 174 0 91 62 208 137 260 81 54 169 145
202 206 37 69 61 165 61 244 0 74 25 195 56 272 24 58 175 297 183 289 2 -2
34 -54 72 -116z"/>
<path d="M2105 3015 l-25 -24 0 -229 c0 -204 2 -232 18 -250 19 -23 433 -192
470 -192 12 0 34 11 47 25 30 29 33 83 10 189 -25 117 -85 227 -173 315 -84
84 -250 191 -297 191 -14 0 -37 -11 -50 -25z m243 -289 c48 -50 122 -180 110
-192 -3 -2 -53 14 -112 37 l-106 42 0 104 0 104 28 -19 c15 -11 51 -45 80 -76z"/>
<path d="M3150 2975 c-185 -115 -298 -263 -335 -440 -23 -108 -20 -161 10
-190 13 -14 35 -25 47 -25 37 0 451 169 471 192 15 18 17 46 17 250 l0 229
-25 24 c-38 39 -69 32 -185 -40z m50 -258 l0 -104 -106 -42 c-59 -23 -109 -39
-112 -36 -3 2 11 38 31 79 27 54 55 91 107 140 39 36 73 66 75 66 3 0 5 -47 5
-103z"/>
<path d="M2521 2199 c-68 -13 -161 -61 -217 -112 -113 -102 -181 -321 -119
-382 31 -32 63 -31 126 1 28 14 52 24 54 22 1 -2 14 -26 29 -55 40 -80 73 -90
156 -48 27 14 53 25 58 25 5 0 39 -45 75 -100 47 -70 74 -101 92 -106 52 -13
72 2 145 111 39 58 74 105 78 105 5 0 48 -14 97 -30 108 -36 129 -37 160 -5
65 64 -4 292 -124 412 -103 103 -206 145 -401 163 -130 11 -147 11 -209 -1z
m208 -160 c138 -13 204 -36 268 -94 49 -43 119 -153 92 -143 -67 26 -130 40
-153 34 -18 -4 -42 -30 -79 -86 -28 -44 -54 -80 -57 -80 -3 0 -27 34 -54 76
-69 105 -89 113 -177 68 -28 -14 -52 -24 -54 -22 -1 2 -14 26 -29 55 -28 56
-49 73 -92 73 l-28 0 39 40 c39 40 87 68 140 81 43 10 58 10 184 -2z"/>
</g>
</svg>
