<?xml version="1.0" standalone="no"?>
<!DOCTYPE svg PUBLIC "-//W3C//DTD SVG 20010904//EN"
 "http://www.w3.org/TR/2001/REC-SVG-20010904/DTD/svg10.dtd">
<svg version="1.0" xmlns="http://www.w3.org/2000/svg"
 width="512.000000pt" height="512.000000pt" viewBox="0 0 512.000000 512.000000"
 preserveAspectRatio="xMidYMid meet">

<g transform="translate(0.000000,512.000000) scale(0.100000,-0.100000)"
fill="#000000" stroke="none">
<path d="M2405 4839 c-187 -18 -386 -88 -519 -183 -35 -25 -96 -80 -137 -124
-125 -134 -201 -280 -274 -532 -51 -175 -88 -265 -148 -364 -96 -159 -227
-279 -356 -326 -31 -12 -62 -28 -68 -37 -10 -12 -13 -71 -13 -210 l0 -193 -75
0 -75 0 0 265 0 265 39 20 c48 24 94 79 110 129 14 48 14 134 0 184 -13 48
-69 111 -118 133 l-37 16 26 52 c22 44 25 64 25 151 0 89 -3 106 -27 150 -133
254 -482 254 -616 0 -24 -44 -27 -61 -27 -150 0 -87 3 -107 25 -151 l26 -52
-37 -16 c-49 -22 -105 -85 -118 -133 -14 -50 -14 -136 0 -184 15 -50 62 -105
109 -129 l39 -20 3 -246 c3 -245 3 -246 27 -265 32 -26 73 -24 99 4 21 23 22
31 22 260 l0 237 140 0 140 0 -2 -1482 -3 -1483 -135 0 -135 0 -5 1129 -5
1129 -26 19 c-20 15 -35 18 -58 13 -64 -14 -61 55 -61 -1225 l0 -1162 29 -29
29 -29 232 0 232 0 29 29 29 29 0 302 0 301 72 -3 73 -3 3 -306 c2 -296 3
-307 23 -325 21 -18 66 -19 1650 -19 1549 0 1629 1 1646 18 16 16 18 47 23
325 l5 307 73 3 72 3 0 -301 0 -302 29 -29 29 -29 232 0 232 0 29 29 29 29 0
476 c0 327 -3 483 -11 499 -11 24 -47 47 -73 47 -7 0 -25 -9 -40 -21 l-26 -20
-2 -442 -3 -442 -135 0 -135 0 -3 1483 -2 1482 140 0 140 0 0 -923 0 -924 23
-21 c29 -27 67 -28 98 -3 l24 19 3 931 2 931 39 20 c48 24 95 79 110 129 14
48 14 134 0 184 -13 48 -69 111 -118 133 l-37 16 26 52 c22 44 25 64 25 151 0
89 -3 106 -27 150 -110 211 -381 256 -547 93 -105 -104 -133 -267 -69 -397
l24 -49 -37 -16 c-49 -22 -105 -85 -118 -133 -14 -48 -14 -137 -1 -183 13 -47
63 -106 111 -130 l39 -20 0 -265 0 -265 -75 0 -75 0 0 191 c0 106 -4 198 -10
209 -5 10 -33 26 -61 35 -70 24 -187 104 -249 172 -128 140 -191 266 -279 564
-67 228 -145 373 -270 502 -168 175 -380 270 -662 296 -127 12 -164 12 -294 0z
m75 -1059 l0 -910 -120 0 -120 0 0 894 0 895 53 10 c28 5 61 12 72 14 11 3 41
5 68 6 l47 1 0 -910z m348 890 l52 -12 0 -894 0 -894 -120 0 -120 0 0 911 0
912 68 -6 c37 -3 91 -11 120 -17z m388 -193 l64 -59 0 -774 0 -774 -125 0
-125 0 0 858 c0 472 3 861 6 864 10 11 116 -57 180 -115z m-1126 -747 l0 -860
-125 0 -125 0 0 773 0 773 48 46 c26 26 74 65 107 87 106 71 95 162 95 -819z
m-1587 539 c47 -13 106 -63 123 -106 8 -18 14 -56 14 -86 0 -187 -251 -257
-351 -99 -67 106 -19 246 97 287 48 17 68 18 117 4z m4220 0 c47 -13 106 -63
123 -106 8 -18 14 -56 14 -86 0 -187 -251 -257 -351 -99 -67 106 -19 246 97
287 48 17 68 18 117 4z m-3033 -764 l0 -635 -125 0 -125 0 0 329 0 330 35 60
c48 82 107 232 145 368 31 113 56 183 65 183 3 0 5 -286 5 -635z m1764 600 c9
-20 29 -86 46 -148 38 -136 97 -286 145 -368 l35 -60 0 -330 0 -329 -125 0
-125 0 0 635 c0 349 2 635 5 635 3 0 11 -16 19 -35z m-2729 -390 c32 -31 35
-110 6 -146 l-19 -24 -262 0 -262 0 -19 24 c-29 36 -26 115 6 146 l24 25 251
0 251 0 24 -25z m4220 0 c32 -31 35 -110 6 -146 l-19 -24 -262 0 -262 0 -19
24 c-29 36 -26 115 6 146 l24 25 251 0 251 0 24 -25z m-3655 -615 l0 -230
-125 0 -125 0 0 153 0 152 63 32 c34 18 87 53 117 77 30 25 58 45 63 45 4 1 7
-102 7 -229z m2616 179 c37 -28 92 -63 121 -77 l53 -26 0 -153 0 -153 -125 0
-125 0 0 230 c0 127 2 230 4 230 3 0 35 -23 72 -51z m-3018 -931 l-3 -373 -72
-3 -73 -3 0 376 0 375 75 0 75 0 -2 -372z m402 -448 l0 -820 -125 0 -125 0 0
820 0 820 125 0 125 0 0 -820z m398 -2 l2 -818 -125 0 -125 0 0 820 0 821 123
-3 122 -3 3 -817z m400 466 c2 -337 3 -352 22 -369 28 -25 76 -23 103 4 22 21
22 26 25 371 l3 350 119 0 120 0 0 -820 0 -820 -120 0 -119 0 -3 351 -3 351
-24 19 c-30 25 -76 24 -101 -1 -19 -19 -20 -33 -20 -370 l0 -350 -125 0 -125
0 0 820 0 821 123 -3 122 -3 3 -351z m792 -464 l0 -820 -120 0 -120 0 0 820 0
820 120 0 120 0 0 -820z m400 0 l0 -820 -125 0 -125 0 0 813 c0 448 3 817 7
820 3 4 60 7 125 7 l118 0 0 -820z m400 0 l0 -820 -125 0 -125 0 0 813 c0 448
3 817 7 820 3 4 60 7 125 7 l118 0 0 -820z m400 0 l0 -820 -125 0 -125 0 0
820 0 820 125 0 125 0 0 -820z m300 445 l0 -376 -72 3 -73 3 -3 373 -2 372 75
0 75 0 0 -375z m-3490 -895 l0 -370 -75 0 -75 0 0 370 0 370 75 0 75 0 0 -370z
m3490 0 l0 -370 -75 0 -75 0 0 370 0 370 75 0 75 0 0 -370z m-3095 -775 l0
-250 -122 -3 -123 -3 0 256 0 256 123 -3 122 -3 0 -250z m400 0 l0 -250 -122
-3 -123 -3 0 256 0 256 123 -3 122 -3 0 -250z m400 0 l0 -250 -122 -3 -123 -3
0 256 0 256 123 -3 122 -3 0 -250z m395 0 l0 -255 -120 0 -120 0 0 255 0 255
120 0 120 0 0 -255z m400 0 l0 -255 -120 0 -120 0 0 255 0 255 120 0 120 0 0
-255z m400 0 l0 -256 -122 3 -123 3 -3 240 c-1 132 0 245 2 252 4 10 38 13
126 13 l120 0 0 -255z m400 0 l0 -256 -122 3 -123 3 -3 240 c-1 132 0 245 2
252 4 10 38 13 126 13 l120 0 0 -255z m400 0 l0 -256 -122 3 -123 3 -3 240
c-1 132 0 245 2 252 4 10 38 13 126 13 l120 0 0 -255z"/>
</g>
</svg>
