<?xml version="1.0" standalone="no"?>
<!DOCTYPE svg PUBLIC "-//W3C//DTD SVG 20010904//EN"
 "http://www.w3.org/TR/2001/REC-SVG-20010904/DTD/svg10.dtd">
<svg version="1.0" xmlns="http://www.w3.org/2000/svg"
 width="512.000000pt" height="512.000000pt" viewBox="0 0 512.000000 512.000000"
 preserveAspectRatio="xMidYMid meet">

<g transform="translate(0.000000,512.000000) scale(0.100000,-0.100000)"
fill="#000000" stroke="none">
<path d="M2525 4830 c-42 -10 -1100 -446 -1129 -465 -12 -8 -30 -30 -40 -48
-9 -17 -75 -264 -146 -547 -72 -283 -132 -515 -133 -516 -1 -1 -112 -50 -246
-109 -252 -112 -291 -135 -309 -182 -6 -16 -127 -588 -267 -1273 -177 -857
-255 -1256 -251 -1280 8 -48 34 -81 86 -107 l44 -23 2426 0 2426 0 44 23 c52
26 78 59 86 107 4 24 -74 423 -251 1280 -140 685 -261 1257 -267 1273 -18 47
-56 69 -309 182 -134 60 -245 109 -246 110 -1 0 -61 232 -133 515 -71 283
-137 530 -146 547 -10 18 -28 40 -42 49 -35 23 -1100 459 -1137 466 -17 3 -43
2 -60 -2z m515 -507 c250 -103 457 -188 460 -190 8 -7 186 -718 180 -721 -4
-1 -94 34 -201 79 -256 107 -299 108 -366 9 -40 -58 -20 -162 40 -199 11 -7
277 -123 591 -258 314 -134 574 -247 578 -251 3 -4 106 -491 228 -1082 121
-591 223 -1085 227 -1097 l5 -23 -550 0 -550 0 -6 27 c-3 16 -46 318 -96 672
-68 487 -95 651 -108 673 -15 23 -343 270 -755 566 -101 73 -140 88 -194 72
-48 -13 -850 -599 -875 -639 -14 -21 -40 -185 -108 -672 -50 -354 -93 -656
-96 -672 l-6 -27 -550 0 -550 0 5 23 c5 17 419 2026 444 2151 5 24 18 34 91
67 47 22 87 37 90 34 3 -2 -7 -46 -21 -97 -42 -151 -41 -184 11 -240 35 -37
45 -42 95 -46 66 -5 117 20 143 71 9 17 107 379 218 805 l203 774 469 193
c258 107 476 191 484 189 8 -3 220 -89 470 -191z m-156 -2294 c279 -204 316
-234 321 -262 5 -29 165 -1166 165 -1174 0 -2 -365 -3 -811 -3 l-811 0 6 38
c4 20 40 280 81 577 42 297 78 552 81 567 4 21 70 74 321 257 173 127 319 231
324 231 4 0 150 -104 323 -231z"/>
</g>
</svg>
